<svg width="55" height="54" viewBox="0 0 55 54" fill="none" xmlns="http://www.w3.org/2000/svg">
<g clip-path="url(#clip0_61_402)">
<path d="M52.06 30.8605H49.4781V28.2955H46.9131V25.7136H44.3481V-0.00390625H18.6306V15.4367H16.0488V10.2898H10.9187V2.57797H8.33688V10.2898H3.19V15.4367H0.625V53.9961H52.06V38.5723H54.625V33.4255H52.06V30.8605ZM5.77187 12.8548H13.4837V15.4367H5.77187V12.8548ZM18.6306 33.4255H16.0488V38.5723H18.6306V51.4311H3.19V18.0017H18.6306V33.4255ZM21.1956 2.57797H41.7662V20.5836H39.2013V18.0017H36.6194V15.4367H34.0544V18.0017H31.4894V20.5836H28.9075V23.1486H26.3425V25.7136H23.7775V28.2955H21.1956V2.57797ZM49.4781 51.4311H41.7662V41.1542H39.2013V51.4311H31.4894V48.8661H34.0544V46.2842H31.4894V41.1542H28.9075V51.4311H21.1956V33.4255H23.7775V30.8605H26.3425V28.2955H28.9075V25.7136H31.4894V23.1486H34.0544V20.5836H36.6194V23.1486H39.2013V25.7136H41.7662V28.2955H44.3481V30.8605H46.9131V33.4255H49.4781V51.4311Z" fill="#E98A10"/>
<path d="M26.3425 33.4256H44.3481V36.0074H26.3425V33.4256ZM31.4894 38.5724H39.2012V41.1543H31.4894V38.5724ZM34.0544 5.14307H39.2012V10.2899H34.0544V5.14307ZM23.7775 12.8549H28.9075V18.0018H23.7775V12.8549ZM23.7775 5.14307H28.9075V10.2899H23.7775V5.14307ZM8.33685 43.7193H13.4837V48.8662H8.33685V43.7193ZM8.33685 33.4256H13.4837V38.5724H8.33685V33.4256ZM8.33685 23.1487H13.4837V28.2956H8.33685V23.1487Z" fill="#E98A10"/>
</g>
<defs>
<clipPath id="clip0_61_402">
<rect width="54" height="54" fill="white" transform="translate(0.625 -0.00390625)"/>
</clipPath>
</defs>
</svg>
