<svg width="46" height="54" viewBox="0 0 46 54" fill="none" xmlns="http://www.w3.org/2000/svg">
<g clip-path="url(#clip0_61_409)">
<mask id="path-1-inside-1_61_409" fill="white">
<path d="M36.2321 8.63609H10.5179C10.2337 8.63609 9.96117 8.74988 9.76024 8.95242C9.55931 9.15496 9.44643 9.42966 9.44643 9.71609V22.6761C9.44643 22.9625 9.55931 23.2372 9.76024 23.4398C9.96117 23.6423 10.2337 23.7561 10.5179 23.7561H36.2321C36.5163 23.7561 36.7888 23.6423 36.9898 23.4398C37.1907 23.2372 37.3036 22.9625 37.3036 22.6761V9.71609C37.3036 9.42966 37.1907 9.15496 36.9898 8.95242C36.7888 8.74988 36.5163 8.63609 36.2321 8.63609ZM35.1607 21.5961H11.5893V10.7961H35.1607V21.5961ZM42.6607 -0.00390625H4.08929C3.2368 -0.00390625 2.41924 0.33745 1.81644 0.945068C1.21365 1.55269 0.875 2.37679 0.875 3.23609V50.7561C0.875 51.6154 1.21365 52.4395 1.81644 53.0471C2.41924 53.6547 3.2368 53.9961 4.08929 53.9961H42.6607C43.5132 53.9961 44.3308 53.6547 44.9336 53.0471C45.5364 52.4395 45.875 51.6154 45.875 50.7561V3.23609C45.875 2.37679 45.5364 1.55269 44.9336 0.945068C44.3308 0.33745 43.5132 -0.00390625 42.6607 -0.00390625ZM43.7321 50.7561C43.7321 51.0425 43.6193 51.3172 43.4183 51.5198C43.2174 51.7223 42.9449 51.8361 42.6607 51.8361H4.08929C3.80512 51.8361 3.5326 51.7223 3.33167 51.5198C3.13074 51.3172 3.01786 51.0425 3.01786 50.7561V3.23609C3.01786 2.94966 3.13074 2.67496 3.33167 2.47242C3.5326 2.26988 3.80512 2.15609 4.08929 2.15609H42.6607C42.9449 2.15609 43.2174 2.26988 43.4183 2.47242C43.6193 2.67496 43.7321 2.94966 43.7321 3.23609V50.7561ZM14.8036 32.3961C14.8036 32.8233 14.6779 33.2409 14.4424 33.5961C14.207 33.9513 13.8723 34.2282 13.4808 34.3917C13.0892 34.5552 12.6583 34.5979 12.2427 34.5146C11.827 34.4312 11.4452 34.2255 11.1455 33.9234C10.8458 33.6214 10.6417 33.2365 10.559 32.8175C10.4763 32.3985 10.5188 31.9642 10.681 31.5695C10.8432 31.1748 11.1178 30.8375 11.4702 30.6001C11.8226 30.3628 12.2369 30.2361 12.6607 30.2361C13.229 30.2361 13.7741 30.4637 14.1759 30.8687C14.5778 31.2738 14.8036 31.8232 14.8036 32.3961ZM25.5179 32.3961C25.5179 32.8233 25.3922 33.2409 25.1567 33.5961C24.9213 33.9513 24.5866 34.2282 24.195 34.3917C23.8035 34.5552 23.3726 34.5979 22.9569 34.5146C22.5413 34.4312 22.1595 34.2255 21.8598 33.9234C21.5601 33.6214 21.356 33.2365 21.2733 32.8175C21.1906 32.3985 21.2331 31.9642 21.3953 31.5695C21.5574 31.1748 21.8321 30.8375 22.1845 30.6001C22.5369 30.3628 22.9512 30.2361 23.375 30.2361C23.9433 30.2361 24.4884 30.4637 24.8902 30.8687C25.2921 31.2738 25.5179 31.8232 25.5179 32.3961ZM36.2321 32.3961C36.2321 32.8233 36.1065 33.2409 35.871 33.5961C35.6355 33.9513 35.3009 34.2282 34.9093 34.3917C34.5178 34.5552 34.0869 34.5979 33.6712 34.5146C33.2556 34.4312 32.8737 34.2255 32.5741 33.9234C32.2744 33.6214 32.0703 33.2365 31.9876 32.8175C31.9049 32.3985 31.9474 31.9642 32.1095 31.5695C32.2717 31.1748 32.5464 30.8375 32.8988 30.6001C33.2512 30.3628 33.6655 30.2361 34.0893 30.2361C34.6576 30.2361 35.2027 30.4637 35.6045 30.8687C36.0064 31.2738 36.2321 31.8232 36.2321 32.3961ZM14.8036 43.1961C14.8036 43.6233 14.6779 44.0409 14.4424 44.3961C14.207 44.7513 13.8723 45.0282 13.4808 45.1917C13.0892 45.3552 12.6583 45.3979 12.2427 45.3146C11.827 45.2312 11.4452 45.0255 11.1455 44.7234C10.8458 44.4214 10.6417 44.0365 10.559 43.6175C10.4763 43.1985 10.5188 42.7642 10.681 42.3695C10.8432 41.9748 11.1178 41.6375 11.4702 41.4001C11.8226 41.1628 12.2369 41.0361 12.6607 41.0361C13.229 41.0361 13.7741 41.2637 14.1759 41.6687C14.5778 42.0738 14.8036 42.6232 14.8036 43.1961ZM25.5179 43.1961C25.5179 43.6233 25.3922 44.0409 25.1567 44.3961C24.9213 44.7513 24.5866 45.0282 24.195 45.1917C23.8035 45.3552 23.3726 45.3979 22.9569 45.3146C22.5413 45.2312 22.1595 45.0255 21.8598 44.7234C21.5601 44.4214 21.356 44.0365 21.2733 43.6175C21.1906 43.1985 21.2331 42.7642 21.3953 42.3695C21.5574 41.9748 21.8321 41.6375 22.1845 41.4001C22.5369 41.1628 22.9512 41.0361 23.375 41.0361C23.9433 41.0361 24.4884 41.2637 24.8902 41.6687C25.2921 42.0738 25.5179 42.6232 25.5179 43.1961ZM36.2321 43.1961C36.2321 43.6233 36.1065 44.0409 35.871 44.3961C35.6355 44.7513 35.3009 45.0282 34.9093 45.1917C34.5178 45.3552 34.0869 45.3979 33.6712 45.3146C33.2556 45.2312 32.8737 45.0255 32.5741 44.7234C32.2744 44.4214 32.0703 44.0365 31.9876 43.6175C31.9049 43.1985 31.9474 42.7642 32.1095 42.3695C32.2717 41.9748 32.5464 41.6375 32.8988 41.4001C33.2512 41.1628 33.6655 41.0361 34.0893 41.0361C34.6576 41.0361 35.2027 41.2637 35.6045 41.6687C36.0064 42.0738 36.2321 42.6232 36.2321 43.1961Z"/>
</mask>
<path d="M36.2321 8.63609H10.5179C10.2337 8.63609 9.96117 8.74988 9.76024 8.95242C9.55931 9.15496 9.44643 9.42966 9.44643 9.71609V22.6761C9.44643 22.9625 9.55931 23.2372 9.76024 23.4398C9.96117 23.6423 10.2337 23.7561 10.5179 23.7561H36.2321C36.5163 23.7561 36.7888 23.6423 36.9898 23.4398C37.1907 23.2372 37.3036 22.9625 37.3036 22.6761V9.71609C37.3036 9.42966 37.1907 9.15496 36.9898 8.95242C36.7888 8.74988 36.5163 8.63609 36.2321 8.63609ZM35.1607 21.5961H11.5893V10.7961H35.1607V21.5961ZM42.6607 -0.00390625H4.08929C3.2368 -0.00390625 2.41924 0.33745 1.81644 0.945068C1.21365 1.55269 0.875 2.37679 0.875 3.23609V50.7561C0.875 51.6154 1.21365 52.4395 1.81644 53.0471C2.41924 53.6547 3.2368 53.9961 4.08929 53.9961H42.6607C43.5132 53.9961 44.3308 53.6547 44.9336 53.0471C45.5364 52.4395 45.875 51.6154 45.875 50.7561V3.23609C45.875 2.37679 45.5364 1.55269 44.9336 0.945068C44.3308 0.33745 43.5132 -0.00390625 42.6607 -0.00390625ZM43.7321 50.7561C43.7321 51.0425 43.6193 51.3172 43.4183 51.5198C43.2174 51.7223 42.9449 51.8361 42.6607 51.8361H4.08929C3.80512 51.8361 3.5326 51.7223 3.33167 51.5198C3.13074 51.3172 3.01786 51.0425 3.01786 50.7561V3.23609C3.01786 2.94966 3.13074 2.67496 3.33167 2.47242C3.5326 2.26988 3.80512 2.15609 4.08929 2.15609H42.6607C42.9449 2.15609 43.2174 2.26988 43.4183 2.47242C43.6193 2.67496 43.7321 2.94966 43.7321 3.23609V50.7561ZM14.8036 32.3961C14.8036 32.8233 14.6779 33.2409 14.4424 33.5961C14.207 33.9513 13.8723 34.2282 13.4808 34.3917C13.0892 34.5552 12.6583 34.5979 12.2427 34.5146C11.827 34.4312 11.4452 34.2255 11.1455 33.9234C10.8458 33.6214 10.6417 33.2365 10.559 32.8175C10.4763 32.3985 10.5188 31.9642 10.681 31.5695C10.8432 31.1748 11.1178 30.8375 11.4702 30.6001C11.8226 30.3628 12.2369 30.2361 12.6607 30.2361C13.229 30.2361 13.7741 30.4637 14.1759 30.8687C14.5778 31.2738 14.8036 31.8232 14.8036 32.3961ZM25.5179 32.3961C25.5179 32.8233 25.3922 33.2409 25.1567 33.5961C24.9213 33.9513 24.5866 34.2282 24.195 34.3917C23.8035 34.5552 23.3726 34.5979 22.9569 34.5146C22.5413 34.4312 22.1595 34.2255 21.8598 33.9234C21.5601 33.6214 21.356 33.2365 21.2733 32.8175C21.1906 32.3985 21.2331 31.9642 21.3953 31.5695C21.5574 31.1748 21.8321 30.8375 22.1845 30.6001C22.5369 30.3628 22.9512 30.2361 23.375 30.2361C23.9433 30.2361 24.4884 30.4637 24.8902 30.8687C25.2921 31.2738 25.5179 31.8232 25.5179 32.3961ZM36.2321 32.3961C36.2321 32.8233 36.1065 33.2409 35.871 33.5961C35.6355 33.9513 35.3009 34.2282 34.9093 34.3917C34.5178 34.5552 34.0869 34.5979 33.6712 34.5146C33.2556 34.4312 32.8737 34.2255 32.5741 33.9234C32.2744 33.6214 32.0703 33.2365 31.9876 32.8175C31.9049 32.3985 31.9474 31.9642 32.1095 31.5695C32.2717 31.1748 32.5464 30.8375 32.8988 30.6001C33.2512 30.3628 33.6655 30.2361 34.0893 30.2361C34.6576 30.2361 35.2027 30.4637 35.6045 30.8687C36.0064 31.2738 36.2321 31.8232 36.2321 32.3961ZM14.8036 43.1961C14.8036 43.6233 14.6779 44.0409 14.4424 44.3961C14.207 44.7513 13.8723 45.0282 13.4808 45.1917C13.0892 45.3552 12.6583 45.3979 12.2427 45.3146C11.827 45.2312 11.4452 45.0255 11.1455 44.7234C10.8458 44.4214 10.6417 44.0365 10.559 43.6175C10.4763 43.1985 10.5188 42.7642 10.681 42.3695C10.8432 41.9748 11.1178 41.6375 11.4702 41.4001C11.8226 41.1628 12.2369 41.0361 12.6607 41.0361C13.229 41.0361 13.7741 41.2637 14.1759 41.6687C14.5778 42.0738 14.8036 42.6232 14.8036 43.1961ZM25.5179 43.1961C25.5179 43.6233 25.3922 44.0409 25.1567 44.3961C24.9213 44.7513 24.5866 45.0282 24.195 45.1917C23.8035 45.3552 23.3726 45.3979 22.9569 45.3146C22.5413 45.2312 22.1595 45.0255 21.8598 44.7234C21.5601 44.4214 21.356 44.0365 21.2733 43.6175C21.1906 43.1985 21.2331 42.7642 21.3953 42.3695C21.5574 41.9748 21.8321 41.6375 22.1845 41.4001C22.5369 41.1628 22.9512 41.0361 23.375 41.0361C23.9433 41.0361 24.4884 41.2637 24.8902 41.6687C25.2921 42.0738 25.5179 42.6232 25.5179 43.1961ZM36.2321 43.1961C36.2321 43.6233 36.1065 44.0409 35.871 44.3961C35.6355 44.7513 35.3009 45.0282 34.9093 45.1917C34.5178 45.3552 34.0869 45.3979 33.6712 45.3146C33.2556 45.2312 32.8737 45.0255 32.5741 44.7234C32.2744 44.4214 32.0703 44.0365 31.9876 43.6175C31.9049 43.1985 31.9474 42.7642 32.1095 42.3695C32.2717 41.9748 32.5464 41.6375 32.8988 41.4001C33.2512 41.1628 33.6655 41.0361 34.0893 41.0361C34.6576 41.0361 35.2027 41.2637 35.6045 41.6687C36.0064 42.0738 36.2321 42.6232 36.2321 43.1961Z" fill="#E98A10" stroke="#E98A10" stroke-width="6" mask="url(#path-1-inside-1_61_409)"/>
</g>
<defs>
<clipPath id="clip0_61_409">
<rect width="45" height="54" fill="white" transform="translate(0.875 -0.00390625)"/>
</clipPath>
</defs>
</svg>
