<svg width="403" height="271" viewBox="0 0 403 271" fill="none" xmlns="http://www.w3.org/2000/svg">
<g clip-path="url(#clip0_357_132)">
<path d="M147.214 0.0454102C203.422 0.0454102 252.313 32.5782 277.379 80.5005C278.329 81.67 279.168 83.2966 279.87 85.4458C279.882 85.4836 279.895 85.5214 279.907 85.5591C280.979 87.804 282.001 90.0798 282.969 92.3853C290.903 105.958 306.029 109.835 316.312 110.106C319.481 109.612 322.71 109.358 325.987 109.358C368.122 109.358 402.278 151.417 402.278 203.299C402.278 255.181 368.122 297.24 325.987 297.24C298.422 297.24 274.271 279.237 260.865 252.26C233.712 286.013 192.879 307.488 147.214 307.488C65.4606 307.488 -0.813477 238.664 -0.813477 153.766C-0.813286 68.8686 65.4607 0.0456157 147.214 0.0454102Z" fill="#F6F6F6"/>
<path d="M400.178 202.716C151.036 125.742 29.5398 154.322 -0.0657692 178.235C-40.6026 185.978 -16.9561 247.504 -0.0657692 277.299L243.041 347.897C399.23 331.576 649.32 279.691 400.178 202.716Z" fill="#EEEEEE"/>
<circle cx="289.548" cy="192.481" r="44.4083" fill="white"/>
<path d="M450.704 228.2C263.761 194.224 122.373 223.407 75.0476 242.245L70.7333 296.459L273.48 344.306L575.258 363.957C611.633 332.861 637.647 262.176 450.704 228.2Z" fill="#C6C6C6"/>
<path d="M111.347 44.4531C118.579 44.4533 124.441 50.316 124.441 57.5479V159.46H141.521V88.292C141.522 81.0601 147.384 75.1974 154.616 75.1973C161.848 75.1973 167.711 81.06 167.711 88.292V159.459C167.711 173.542 156.595 185.026 142.659 185.622V185.649H124.441V230.058H98.252V129.854H82.3105C81.9276 129.854 81.5476 129.84 81.1709 129.815V129.854C66.7069 129.854 54.9814 118.129 54.9814 103.665V87.1543C54.9815 79.9223 60.8442 74.0596 68.0762 74.0596C75.3082 74.0596 81.1709 79.9223 81.1709 87.1543V103.665H98.252V57.5479C98.252 50.3159 104.115 44.4531 111.347 44.4531Z" fill="#9D9E9B"/>
<path d="M390.322 247.707C207.678 195.328 64.0914 210.321 15.1284 224.365L5.44971 277.882L202.44 345.633L500.773 395.166C540.057 367.838 572.965 300.086 390.322 247.707Z" fill="#878787"/>
<path d="M350.467 100.249C354.555 100.249 357.869 103.563 357.869 107.65V149.212H366.979V112.205C366.979 108.117 370.293 104.804 374.38 104.804C378.468 104.804 381.782 108.117 381.782 112.205V149.212C381.782 157.26 375.36 163.807 367.361 164.01L366.979 164.015H357.869V220.948H343.066V178.817H331.68C323.633 178.817 317.085 172.395 316.882 164.396L316.877 164.015V140.672C316.877 136.584 320.191 133.271 324.279 133.271C328.366 133.271 331.68 136.584 331.68 140.672V164.015H343.066V107.65C343.066 103.563 346.38 100.249 350.467 100.249Z" fill="#C6C6C6"/>
<path d="M356.257 8.59424C361.925 9.55496 370.44 12.3733 377.61 17.7231C384.792 23.082 390.658 31.0123 390.891 42.1655C391.181 56.0882 383.904 66.3652 371.034 73.771C358.194 81.1593 339.74 85.7247 317.512 88.2896C281.952 92.3926 249.506 92.2802 237.712 91.7095L237.739 91.1401L237.767 90.5718C249.505 91.1398 281.888 91.254 317.381 87.1587C339.56 84.5995 357.829 80.0556 370.467 72.7837C383.074 65.5291 390.032 55.5941 389.753 42.189C389.53 31.48 383.914 23.848 376.929 18.6362C369.932 13.4157 361.595 10.6544 356.066 9.71729L356.161 9.15576L356.257 8.59424ZM68.2383 47.895C142.38 69.728 248.915 69.1265 292.926 66.0913L292.966 66.6597L293.005 67.228C248.958 70.2657 142.257 70.8786 67.916 48.9868L68.2383 47.895ZM309.266 1.97607C311.02 1.49254 312.714 1.38324 314.346 1.64893C320.058 2.57884 325.687 4.01861 331.233 5.96826C331.629 6.10749 332.026 6.24961 332.421 6.39404C332.667 6.48447 332.891 6.64328 333.039 6.86475C333.187 7.08608 333.248 7.34962 333.207 7.604C333.165 7.85828 333.024 8.08865 332.813 8.25146C332.603 8.41453 332.339 8.49373 332.077 8.50146C331.657 8.51308 331.236 8.52239 330.816 8.52881C324.938 8.61869 319.143 8.19794 313.431 7.26807C311.799 7.00239 310.227 6.36199 308.717 5.34717C308.34 5.09358 307.965 4.81646 307.596 4.51611C307.405 4.35928 307.227 4.18343 307.107 3.97705C306.988 3.77057 306.939 3.54817 306.974 3.3335C307.009 3.11871 307.126 2.92335 307.305 2.76514C307.483 2.60704 307.709 2.49709 307.939 2.40869C308.385 2.24111 308.827 2.0969 309.266 1.97607Z" fill="#838383"/>
<path d="M71.8555 195.901C72.0616 195.882 72.2591 195.929 72.417 196.041C72.5748 196.153 72.6848 196.324 72.7344 196.524C72.784 196.725 72.7683 196.94 72.7236 197.143C72.6257 197.621 72.5102 198.109 72.3945 198.574C71.9273 200.447 71.3084 202.174 70.4883 203.783C67.6805 209.446 65.0611 215.329 64.8066 221.613C64.7958 222.06 64.8005 222.511 64.8232 222.96C64.8361 223.181 64.782 223.408 64.6523 223.592C64.5229 223.776 64.3315 223.903 64.1162 223.946C63.9008 223.989 63.6748 223.945 63.4844 223.825C63.381 223.76 63.295 223.674 63.2246 223.576C63.1812 223.643 63.1286 223.704 63.0674 223.757C62.902 223.898 62.6855 223.97 62.4619 223.959C62.2383 223.948 62.0271 223.854 61.8594 223.711C61.503 223.396 61.1761 223.044 60.8809 222.666C57.0301 216.954 58.0504 210.188 59.3418 204.396C59.7601 202.716 60.5581 201.119 61.7129 199.708C62.0049 199.346 62.3183 199.001 62.6504 198.681C62.7996 198.538 62.9694 198.412 63.1611 198.344C63.3531 198.276 63.5518 198.272 63.7285 198.339C63.9052 198.406 64.0515 198.54 64.1504 198.718C64.2492 198.896 64.2929 199.104 64.3105 199.31C64.354 199.752 64.3821 200.195 64.3965 200.636C64.467 202.366 64.3213 203.991 63.9355 205.539C62.8458 210.34 61.4891 215.4 62.3281 219.934C61.5058 213.556 63.5076 207.17 66.2705 201.637C67.1608 199.889 68.422 198.312 70.0166 197.021C70.4136 196.702 70.8413 196.387 71.2764 196.115C71.453 196.006 71.6495 195.921 71.8555 195.901ZM55.2197 200.008C55.3366 199.958 55.4629 199.95 55.5771 199.988C55.6913 200.026 55.7882 200.109 55.8516 200.219C55.9148 200.329 55.939 200.458 55.9395 200.584C55.9453 200.94 55.9457 201.308 55.9463 201.661C55.9478 203.082 55.8832 204.449 55.7178 205.792C55.1786 210.483 55.2811 215.397 57.6533 219.553C57.8249 219.848 58.0052 220.134 58.2012 220.418C58.2777 220.528 58.3194 220.663 58.3076 220.799C58.2957 220.934 58.2332 221.06 58.1328 221.147C58.0323 221.235 57.8997 221.281 57.7637 221.274C57.6277 221.268 57.4995 221.21 57.4004 221.119C57.125 220.864 56.8635 220.6 56.6113 220.319C53.0383 216.311 52.2808 210.536 52.8984 205.447C53.0793 203.975 53.5483 202.526 54.3047 201.207C54.4932 200.88 54.7044 200.55 54.9297 200.248C55.0058 200.147 55.1026 200.058 55.2197 200.008ZM77.1445 206.137C77.2667 206.133 77.3811 206.168 77.4697 206.238C77.5583 206.309 77.6171 206.413 77.6406 206.533C77.6641 206.653 77.6504 206.781 77.6221 206.901C77.5567 207.172 77.4822 207.436 77.3984 207.692C77.0631 208.718 76.5792 209.624 75.9482 210.413C73.7395 213.174 71.3299 215.775 68.7188 218.214C68.5324 218.388 68.3447 218.561 68.1562 218.733C68.0586 218.823 67.9338 218.883 67.7998 218.895C67.6659 218.906 67.5347 218.867 67.4326 218.785C67.3306 218.703 67.2636 218.584 67.2451 218.451C67.2266 218.318 67.2588 218.183 67.3242 218.068C67.4511 217.847 67.579 217.625 67.708 217.405C69.5143 214.322 71.5227 211.401 73.7314 208.64C74.3624 207.851 75.1409 207.18 76.0674 206.628C76.299 206.49 76.5409 206.359 76.791 206.235C76.9022 206.181 77.0225 206.14 77.1445 206.137ZM80.9658 208.991C81.0845 209 81.1906 209.042 81.2695 209.117C81.3482 209.192 81.396 209.295 81.4111 209.413C81.4262 209.531 81.4081 209.655 81.3799 209.774C81.3238 210.005 81.2587 210.229 81.1855 210.443C80.8925 211.303 80.4623 212.033 79.8945 212.633C77.9067 214.731 75.731 216.653 73.3691 218.396C73.2006 218.521 73.0308 218.645 72.8604 218.768C72.7542 218.844 72.625 218.892 72.4922 218.891C72.3596 218.89 72.2338 218.84 72.1406 218.752C72.0475 218.664 71.9915 218.541 71.9834 218.408C71.9753 218.276 72.0169 218.145 72.0869 218.035C72.2001 217.858 72.3146 217.682 72.4297 217.507C74.0433 215.054 75.8443 212.778 77.832 210.68C78.3998 210.08 79.1057 209.611 79.9482 209.271C80.1588 209.187 80.3788 209.11 80.6064 209.042C80.7245 209.007 80.8473 208.983 80.9658 208.991Z" fill="#878787"/>
<path d="M197.109 191.347C197.315 191.328 197.513 191.375 197.67 191.487C197.828 191.599 197.938 191.769 197.988 191.97C198.037 192.171 198.022 192.386 197.977 192.588C197.879 193.067 197.764 193.554 197.648 194.02C197.181 195.893 196.562 197.62 195.742 199.229C192.934 204.892 190.314 210.775 190.06 217.059C190.049 217.506 190.054 217.957 190.077 218.406C190.09 218.627 190.035 218.853 189.906 219.038C189.776 219.222 189.585 219.349 189.37 219.392C189.154 219.435 188.928 219.391 188.738 219.271C188.634 219.206 188.548 219.12 188.478 219.022C188.435 219.089 188.382 219.15 188.321 219.203C188.155 219.344 187.939 219.416 187.715 219.405C187.492 219.394 187.281 219.299 187.113 219.157C186.756 218.842 186.43 218.49 186.134 218.112C182.284 212.4 183.304 205.633 184.595 199.842C185.014 198.162 185.812 196.565 186.966 195.154C187.258 194.792 187.572 194.447 187.904 194.126C188.053 193.984 188.223 193.858 188.415 193.79C188.607 193.722 188.805 193.718 188.982 193.785C189.159 193.852 189.305 193.986 189.404 194.164C189.503 194.342 189.546 194.55 189.564 194.755C189.607 195.197 189.636 195.641 189.65 196.082C189.72 197.812 189.575 199.437 189.189 200.985C188.099 205.785 186.743 210.846 187.582 215.379C186.759 209.002 188.761 202.616 191.524 197.083C192.414 195.335 193.675 193.758 195.27 192.467C195.667 192.148 196.095 191.833 196.53 191.561C196.706 191.452 196.903 191.367 197.109 191.347ZM180.473 195.453C180.59 195.403 180.716 195.395 180.831 195.433C180.945 195.471 181.042 195.553 181.105 195.664C181.168 195.774 181.192 195.903 181.193 196.029C181.199 196.385 181.199 196.753 181.2 197.106C181.201 198.527 181.137 199.894 180.971 201.237C180.432 205.928 180.535 210.842 182.907 214.998C183.078 215.293 183.259 215.579 183.455 215.863C183.531 215.973 183.573 216.108 183.561 216.244C183.549 216.379 183.487 216.504 183.386 216.592C183.286 216.68 183.153 216.726 183.017 216.719C182.881 216.713 182.753 216.654 182.654 216.564C182.378 216.309 182.117 216.044 181.865 215.764C178.292 211.756 177.534 205.981 178.152 200.892C178.333 199.42 178.802 197.971 179.558 196.652C179.747 196.325 179.958 195.995 180.183 195.693C180.259 195.592 180.356 195.503 180.473 195.453ZM202.398 201.583C202.52 201.579 202.634 201.613 202.723 201.684C202.812 201.755 202.87 201.859 202.894 201.979C202.918 202.099 202.904 202.227 202.875 202.347C202.81 202.618 202.736 202.882 202.652 203.138C202.316 204.163 201.833 205.07 201.202 205.859C198.993 208.62 196.583 211.221 193.972 213.66C193.786 213.834 193.598 214.007 193.41 214.179C193.312 214.268 193.187 214.329 193.053 214.34C192.919 214.351 192.788 214.313 192.686 214.231C192.584 214.149 192.517 214.03 192.499 213.897C192.48 213.764 192.512 213.629 192.578 213.514C192.705 213.292 192.832 213.071 192.961 212.851C194.768 209.768 196.776 206.846 198.985 204.085C199.616 203.297 200.394 202.626 201.321 202.074C201.552 201.936 201.794 201.804 202.044 201.681C202.156 201.627 202.276 201.586 202.398 201.583ZM206.218 204.437C206.337 204.446 206.443 204.488 206.522 204.563C206.601 204.638 206.648 204.741 206.664 204.859C206.679 204.977 206.661 205.1 206.632 205.22C206.576 205.451 206.511 205.674 206.438 205.889C206.145 206.749 205.715 207.479 205.147 208.079C203.159 210.177 200.984 212.098 198.622 213.842C198.453 213.967 198.283 214.091 198.113 214.213C198.007 214.289 197.878 214.337 197.745 214.336C197.612 214.335 197.486 214.286 197.393 214.198C197.3 214.109 197.244 213.986 197.236 213.854C197.228 213.722 197.269 213.591 197.339 213.481C197.453 213.304 197.567 213.128 197.682 212.953C199.296 210.5 201.097 208.224 203.084 206.125C203.652 205.526 204.358 205.056 205.201 204.717C205.411 204.633 205.631 204.556 205.859 204.488C205.977 204.453 206.1 204.428 206.218 204.437Z" fill="#878787"/>
<path d="M299.686 201.941C299.781 201.923 299.875 201.936 299.954 201.981C300.032 202.026 300.091 202.1 300.124 202.191C300.156 202.283 300.159 202.384 300.147 202.481C300.124 202.708 300.092 202.941 300.06 203.163C299.928 204.058 299.718 204.892 299.41 205.681C298.36 208.451 297.409 211.317 297.58 214.26C297.595 214.469 297.618 214.68 297.65 214.888C297.666 214.991 297.651 215.099 297.599 215.19C297.547 215.282 297.463 215.35 297.364 215.38C297.266 215.41 297.159 215.4 297.064 215.353C297.012 215.327 296.967 215.289 296.929 215.246C296.912 215.279 296.893 215.312 296.867 215.339C296.796 215.413 296.698 215.456 296.593 215.461C296.489 215.466 296.386 215.432 296.301 215.373C296.12 215.243 295.951 215.094 295.796 214.931C293.737 212.444 293.903 209.24 294.239 206.479C294.357 205.676 294.655 204.894 295.129 204.182C295.248 204 295.379 203.825 295.519 203.66C295.582 203.587 295.655 203.52 295.742 203.479C295.828 203.439 295.92 203.428 296.006 203.451C296.091 203.474 296.166 203.53 296.22 203.609C296.275 203.687 296.305 203.782 296.323 203.877C296.363 204.081 296.396 204.287 296.423 204.492C296.536 205.296 296.543 206.061 296.434 206.8C296.148 209.082 295.749 211.496 296.34 213.568C295.671 210.637 296.311 207.575 297.343 204.874C297.678 204.017 298.195 203.223 298.879 202.548C299.05 202.381 299.234 202.214 299.424 202.067C299.502 202.008 299.591 201.96 299.686 201.941ZM292.112 204.621C292.165 204.593 292.223 204.584 292.278 204.596C292.333 204.609 292.382 204.642 292.417 204.69C292.451 204.739 292.468 204.798 292.474 204.857C292.493 205.023 292.511 205.195 292.528 205.359C292.594 206.022 292.626 206.663 292.611 207.297C292.575 209.51 292.849 211.798 294.147 213.627C294.24 213.757 294.338 213.882 294.442 214.005C294.483 214.053 294.508 214.114 294.509 214.178C294.51 214.242 294.486 214.303 294.443 214.349C294.401 214.394 294.341 214.421 294.277 214.425C294.214 214.428 294.151 214.407 294.1 214.37C293.96 214.263 293.826 214.152 293.696 214.033C291.845 212.327 291.226 209.668 291.28 207.265C291.297 206.57 291.448 205.873 291.74 205.223C291.813 205.062 291.896 204.897 291.987 204.746C292.018 204.696 292.06 204.65 292.112 204.621ZM302.623 206.473C302.68 206.466 302.736 206.476 302.78 206.505C302.825 206.534 302.856 206.58 302.873 206.635C302.889 206.689 302.89 206.75 302.882 206.807C302.864 206.937 302.841 207.063 302.813 207.186C302.704 207.68 302.52 208.126 302.262 208.523C301.359 209.912 300.354 211.236 299.249 212.494C299.17 212.584 299.09 212.674 299.01 212.763C298.969 212.809 298.913 212.843 298.851 212.854C298.79 212.865 298.726 212.854 298.674 212.821C298.623 212.787 298.587 212.734 298.572 212.673C298.558 212.611 298.565 212.547 298.591 212.49C298.64 212.381 298.69 212.272 298.74 212.163C299.441 210.642 300.243 209.186 301.146 207.797C301.404 207.4 301.737 207.052 302.143 206.752C302.245 206.677 302.352 206.604 302.463 206.535C302.512 206.504 302.567 206.48 302.623 206.473ZM304.536 207.628C304.592 207.627 304.643 207.642 304.684 207.673C304.724 207.704 304.751 207.75 304.763 207.804C304.776 207.859 304.773 207.918 304.765 207.975C304.75 208.085 304.73 208.192 304.706 208.296C304.609 208.71 304.441 209.071 304.204 209.377C303.373 210.447 302.447 211.443 301.425 212.365C301.352 212.431 301.279 212.497 301.205 212.562C301.159 212.603 301.101 212.631 301.039 212.636C300.977 212.642 300.916 212.624 300.868 212.588C300.821 212.551 300.789 212.496 300.779 212.434C300.77 212.373 300.782 212.31 300.81 212.256C300.855 212.168 300.9 212.08 300.946 211.993C301.586 210.775 302.321 209.63 303.152 208.56C303.389 208.254 303.697 208.003 304.075 207.806C304.169 207.757 304.268 207.711 304.371 207.668C304.424 207.647 304.48 207.63 304.536 207.628Z" fill="#C6C6C6"/>
</g>
<defs>
<clipPath id="clip0_357_132">
<path d="M0.325684 141.241C0.325684 63.2609 63.5411 0.0454102 141.521 0.0454102H403V191.7C403 235.092 367.824 270.269 324.432 270.269H101.668C45.698 270.269 0.325684 224.896 0.325684 168.926V141.241Z" fill="white"/>
</clipPath>
</defs>
</svg>
