<svg width="15" height="15" viewBox="0 0 15 15" fill="none" xmlns="http://www.w3.org/2000/svg">
<path d="M7.49999 0.505859C3.65 0.505859 0.5 3.66148 0.5 7.54803C0.5 11.0621 3.062 13.9788 6.40799 14.5059V9.58618H4.62999V7.54803H6.40799V5.99482C6.40799 4.23076 7.45099 3.26088 9.05399 3.26088C9.81699 3.26088 10.615 3.39441 10.615 3.39441V5.13036H9.73299C8.86499 5.13036 8.59199 5.67152 8.59199 6.22674V7.54803H10.538L10.223 9.58618H8.59199V14.5059C10.2415 14.2443 11.7435 13.3993 12.8269 12.1234C13.9103 10.8474 14.5037 9.22469 14.5 7.54803C14.5 3.66148 11.35 0.505859 7.49999 0.505859Z" fill="white"/>
</svg>
