<svg width="16" height="17" viewBox="0 0 16 17" fill="none" xmlns="http://www.w3.org/2000/svg">
<path d="M14.222 6.3755V13.3888H1.77756V3.61106H10.0309C10.0106 3.46377 10.0002 3.31529 9.99978 3.16661C10.0001 3.01758 10.0104 2.86943 10.0309 2.72217H1.77756C1.54181 2.72217 1.31572 2.81582 1.14902 2.98252C0.982322 3.14922 0.888672 3.37531 0.888672 3.61106V13.3888C0.888672 13.6246 0.982322 13.8507 1.14902 14.0174C1.31572 14.1841 1.54181 14.2777 1.77756 14.2777H14.222C14.4578 14.2777 14.6838 14.1841 14.8505 14.0174C15.0172 13.8507 15.1109 13.6246 15.1109 13.3888V5.98439C14.8353 6.15772 14.5358 6.28928 14.222 6.3755Z" fill="#4A5C6A"/>
<path d="M3.11133 5.8335H7.55577V12.0557H3.11133V5.8335ZM3.82244 11.3446H6.84466V8.85572H3.82244V11.3446ZM6.84466 6.54461H3.82244V8.14461H6.84466V6.54461Z" fill="#4A5C6A"/>
<path d="M8.44531 4.94434H10.5466C10.7141 5.2086 10.9178 5.44799 11.152 5.65545H9.15642V8.14434H12.1786V6.27189C12.4049 6.35634 12.6431 6.41678 12.8898 6.44967V11.1666H8.44531V4.94434ZM12.1786 8.85545H9.15642V10.4554H12.1786V8.85545Z" fill="#4A5C6A"/>
<path d="M13.3336 5.38878C14.5609 5.38878 15.5558 4.39386 15.5558 3.16656C15.5558 1.93926 14.5609 0.944336 13.3336 0.944336C12.1063 0.944336 11.1113 1.93926 11.1113 3.16656C11.1113 4.39386 12.1063 5.38878 13.3336 5.38878Z" fill="#4A5C6A"/>
</svg>
