<svg width="15" height="15" viewBox="0 0 15 15" fill="none" xmlns="http://www.w3.org/2000/svg">
<path fill-rule="evenodd" clip-rule="evenodd" d="M4.61409 0.547859C5.36055 0.513496 5.59855 0.505859 7.5 0.505859C9.40145 0.505859 9.63945 0.514132 10.3853 0.547859C11.1311 0.581587 11.6402 0.700587 12.0856 0.873041C12.5521 1.04931 12.9753 1.32486 13.3253 1.68122C13.6816 2.03059 13.9565 2.45313 14.1322 2.92022C14.3053 3.36568 14.4236 3.87477 14.458 4.61931C14.4924 5.36704 14.5 5.60504 14.5 7.50586C14.5 9.40668 14.4917 9.64531 14.458 10.3918C14.4243 11.1363 14.3053 11.6454 14.1322 12.0909C13.9565 12.558 13.6811 12.9812 13.3253 13.3311C12.9753 13.6875 12.5521 13.9624 12.0856 14.138C11.6402 14.3111 11.1311 14.4295 10.3865 14.4639C9.63945 14.4982 9.40145 14.5059 7.5 14.5059C5.59855 14.5059 5.36055 14.4976 4.61409 14.4639C3.86955 14.4301 3.36045 14.3111 2.915 14.138C2.44789 13.9623 2.02465 13.687 1.67473 13.3311C1.31873 12.9815 1.04316 12.5584 0.867182 12.0915C0.694727 11.646 0.576364 11.1369 0.542 10.3924C0.507636 9.64468 0.5 9.40668 0.5 7.50586C0.5 5.60504 0.508273 5.36641 0.542 4.62059C0.575727 3.87477 0.694727 3.36568 0.867182 2.92022C1.04335 2.45322 1.31914 2.0302 1.67536 1.68059C2.02486 1.32467 2.44765 1.04911 2.91436 0.873041C3.35982 0.700587 3.86955 0.582223 4.61409 0.547859ZM10.328 1.80786C9.58982 1.77413 9.36836 1.76713 7.49936 1.76713C5.63036 1.76713 5.40891 1.77413 4.67073 1.80786C3.98791 1.83904 3.61755 1.95295 3.37064 2.04904C3.04418 2.17631 2.81064 2.32713 2.56564 2.57213C2.33319 2.79791 2.15443 3.07301 2.04255 3.37713C1.94645 3.62404 1.83255 3.9944 1.80136 4.67722C1.76764 5.4154 1.76064 5.63686 1.76064 7.50586C1.76064 9.37486 1.76764 9.59631 1.80136 10.3345C1.83255 11.0173 1.94645 11.3877 2.04255 11.6346C2.15455 11.9381 2.33336 12.2137 2.56564 12.4396C2.79155 12.6719 3.06709 12.8507 3.37064 12.9627C3.61755 13.0588 3.98791 13.1727 4.67073 13.2039C5.40891 13.2376 5.62973 13.2446 7.49936 13.2446C9.369 13.2446 9.58982 13.2376 10.328 13.2039C11.0108 13.1727 11.3812 13.0588 11.6281 12.9627C11.9545 12.8354 12.1881 12.6846 12.4331 12.4396C12.6654 12.2137 12.8442 11.9381 12.9562 11.6346C13.0523 11.3877 13.1662 11.0173 13.1974 10.3345C13.2311 9.59631 13.2381 9.37486 13.2381 7.50586C13.2381 5.63686 13.2311 5.4154 13.1974 4.67722C13.1662 3.9944 13.0523 3.62404 12.9562 3.37713C12.8289 3.05068 12.6781 2.81713 12.4331 2.57213C12.2073 2.33969 11.9322 2.16092 11.6281 2.04904C11.3812 1.95295 11.0108 1.83904 10.328 1.80786ZM6.60527 9.66377C7.1046 9.87162 7.6606 9.89968 8.17832 9.74314C8.69603 9.58659 9.14334 9.25517 9.44384 8.80547C9.74434 8.35577 9.8794 7.81569 9.82594 7.27747C9.77248 6.73926 9.53382 6.2363 9.15073 5.8545C8.90651 5.61044 8.61123 5.42356 8.28612 5.30732C7.96102 5.19107 7.61418 5.14836 7.27059 5.18225C6.92699 5.21614 6.59519 5.32579 6.29906 5.50331C6.00293 5.68082 5.74984 5.92179 5.55801 6.20886C5.36618 6.49592 5.24039 6.82195 5.18969 7.16347C5.13899 7.50499 5.16464 7.8535 5.2648 8.18392C5.36495 8.51433 5.53712 8.81843 5.76891 9.07432C6.0007 9.33021 6.28634 9.53152 6.60527 9.66377ZM4.95582 4.96168C5.28992 4.62757 5.68657 4.36254 6.1231 4.18173C6.55963 4.00091 7.0275 3.90784 7.5 3.90784C7.9725 3.90784 8.44037 4.00091 8.8769 4.18173C9.31343 4.36254 9.71008 4.62757 10.0442 4.96168C10.3783 5.29578 10.6433 5.69243 10.8241 6.12896C11.005 6.56549 11.098 7.03336 11.098 7.50586C11.098 7.97836 11.005 8.44623 10.8241 8.88276C10.6433 9.31929 10.3783 9.71593 10.0442 10.05C9.36942 10.7248 8.45425 11.1039 7.5 11.1039C6.54575 11.1039 5.63058 10.7248 4.95582 10.05C4.28106 9.37528 3.90198 8.46011 3.90198 7.50586C3.90198 6.55161 4.28106 5.63644 4.95582 4.96168ZM11.896 4.44368C11.9788 4.36558 12.0451 4.27166 12.0909 4.16748C12.1368 4.0633 12.1612 3.95098 12.1629 3.83718C12.1646 3.72337 12.1434 3.61039 12.1006 3.50492C12.0578 3.39945 11.9943 3.30364 11.9138 3.22316C11.8333 3.14267 11.7375 3.07916 11.632 3.03637C11.5266 2.99358 11.4136 2.97239 11.2998 2.97405C11.186 2.97571 11.0736 3.00018 10.9695 3.04603C10.8653 3.09187 10.7714 3.15816 10.6933 3.24095C10.5414 3.40197 10.4582 3.61585 10.4614 3.83718C10.4647 4.05851 10.554 4.26987 10.7106 4.4264C10.8671 4.58292 11.0784 4.67228 11.2998 4.6755C11.5211 4.67873 11.735 4.59557 11.896 4.44368Z" fill="white"/>
</svg>
