<svg width="165" height="59" viewBox="0 0 165 59" fill="none" xmlns="http://www.w3.org/2000/svg">
<path fill-rule="evenodd" clip-rule="evenodd" d="M28.094 0.223588C27.5031 0.405022 27.0194 0.696894 27.0194 0.872741C27.0194 1.04826 26.8636 1.19189 26.6728 1.19189C26.4824 1.19189 25.9986 1.52748 25.5982 1.93768C25.1978 2.34788 24.3493 3.07329 23.7128 3.54988C23.0763 4.02648 21.9107 5.02206 21.1224 5.76226C20.3345 6.50246 19.643 7.10823 19.5865 7.10823C19.53 7.10823 18.7635 7.78433 17.8833 8.61065C17.0034 9.43729 15.574 10.6508 14.7073 11.3078C13.8407 11.9649 13.1317 12.62 13.1317 12.7633C13.1317 12.9069 12.9747 13.0246 12.7826 13.0246C12.5905 13.0246 12.0323 13.4417 11.5426 13.9518C11.0526 14.4616 9.24652 16.0491 7.52875 17.4796C1.93667 22.1364 0.60611 23.4919 0.217587 24.9259C-0.290302 26.8004 0.105164 28.6223 1.25519 29.7047C2.07224 30.4738 2.57517 30.6339 4.61533 30.7736L5.80799 30.8553C6.49004 30.902 7.02247 31.4636 7.03274 32.1472L7.17991 41.9489C7.36475 54.266 7.38095 54.3541 9.75176 55.9032L10.6562 56.4943C10.8691 56.6334 11.1179 56.7078 11.3722 56.7084L46.5281 56.7939C66.0783 56.8413 82.5906 57.0022 82.8178 56.8625C83.1567 56.6545 83.1031 53.8413 82.8178 53.5757C82.7725 53.5333 66.8391 53.5511 47.4107 53.4581C12.9281 53.2925 12.0753 53.2734 11.617 52.6505C11.2351 52.1312 10.8466 49.9602 10.8466 40.9213C10.8466 33.1972 10.8466 30.4034 10.8466 28.76C10.8466 28.0956 10.3081 27.5571 9.64371 27.5571H7.087C4.28732 27.4746 3.88656 27.3881 3.70834 26.83C3.43621 25.9781 3.93484 25.1392 5.35171 24.0651C6.00045 23.5731 6.8886 22.8477 7.32573 22.4526C8.24132 21.6253 10.8373 19.3777 13.4624 17.1404C16.3223 14.7032 18.8075 12.5628 19.2102 12.1897C19.4132 12.002 20.5467 11.0357 21.7288 10.0427C24.9088 7.37118 25.7344 6.66352 26.2519 6.16556C28.4504 4.0508 29.4298 3.49269 30.936 3.49729C32.2715 3.50124 32.6719 3.68004 33.9632 4.84687C34.7815 5.58674 36.1207 6.72728 36.9391 7.3817C37.7575 8.03611 38.8893 9.01888 39.4547 9.56548C40.7658 10.8339 42.1261 12.0112 43.3274 12.9177C43.8482 13.3108 44.8881 14.1983 45.6383 14.8899C48.7009 17.7139 49.5477 18.2835 50.6809 18.2835C52.1477 18.2835 52.7091 17.3593 52.0891 15.9663C51.9542 15.6637 51.7631 15.3789 51.593 15.1772C51.4122 14.9629 51.1864 14.7677 50.9642 14.5965C50.8688 14.5229 50.7321 14.4079 50.5198 14.1995C50.4754 14.1559 50.4282 14.1149 50.3787 14.0773C49.7361 13.59 48.9691 12.9422 48.1814 12.3041C47.3631 11.6411 46.0983 10.5607 45.3708 9.90337C44.6434 9.24567 43.3938 8.16298 42.594 7.49706C41.1708 6.31215 38.3272 3.8148 37.2863 2.83532C34.9254 0.614394 33.9952 0.157193 31.5692 0.0247329C30.2489 -0.0469204 28.6849 0.0424824 28.094 0.223588Z" fill="#E98A10"/>
<path d="M48.0577 43H44.9124V34.8143H36.0293V43H32.8971V24.1282H36.0293V32.0638H44.9124V24.1282H48.0577V43ZM57.5405 43.3158C55.4612 43.3158 53.7986 42.6885 52.5527 41.4339C51.3157 40.1705 50.6971 38.4992 50.6971 36.4199C50.6971 34.1563 51.342 32.3885 52.6317 31.1163C53.9302 29.8441 55.6761 29.2081 57.8695 29.2081C59.9751 29.2081 61.6158 29.8266 62.7914 31.0637C63.9671 32.3007 64.5549 34.0159 64.5549 36.2093C64.5549 38.3588 63.9188 40.0828 62.6466 41.3813C61.3833 42.671 59.6812 43.3158 57.5405 43.3158ZM57.6852 31.6427C56.492 31.6427 55.5489 32.0594 54.8558 32.8929C54.1627 33.7264 53.8161 34.8757 53.8161 36.3409C53.8161 37.7534 54.1671 38.8677 54.8689 39.6836C55.5708 40.4908 56.5096 40.8944 57.6852 40.8944C58.8872 40.8944 59.8084 40.4952 60.4489 39.6968C61.0981 38.8984 61.4227 37.7622 61.4227 36.2883C61.4227 34.8056 61.0981 33.6606 60.4489 32.8534C59.8084 32.0463 58.8872 31.6427 57.6852 31.6427ZM87.0136 43H83.9605V35.6566C83.9605 34.244 83.7587 33.2219 83.3551 32.5902C82.9603 31.9586 82.2891 31.6427 81.3416 31.6427C80.5432 31.6427 79.8632 32.0419 79.3017 32.8403C78.749 33.6387 78.4726 34.595 78.4726 35.7092V43H75.4063V35.4065C75.4063 32.8973 74.5202 31.6427 72.7479 31.6427C71.9232 31.6427 71.2433 32.02 70.7081 32.7745C70.1817 33.529 69.9185 34.5073 69.9185 35.7092V43H66.8653V29.5239H69.9185V31.6559H69.9711C70.945 30.024 72.3619 29.2081 74.2219 29.2081C75.1519 29.2081 75.9634 29.4669 76.6565 29.9845C77.3584 30.4934 77.8366 31.1645 78.091 31.998C79.0912 30.138 80.5827 29.2081 82.5655 29.2081C85.5309 29.2081 87.0136 31.0373 87.0136 34.6959V43ZM101.339 37.091H92.1535C92.1886 38.3369 92.5702 39.2976 93.2984 39.9731C94.0354 40.6487 95.0444 40.9865 96.3253 40.9865C97.7642 40.9865 99.0846 40.5566 100.287 39.6968V42.1577C99.0583 42.9298 97.4352 43.3158 95.4172 43.3158C93.4344 43.3158 91.8771 42.7061 90.7454 41.4866C89.6224 40.2583 89.0608 38.5343 89.0608 36.3146C89.0608 34.2177 89.6794 32.5113 90.9164 31.1953C92.1623 29.8705 93.7064 29.2081 95.5489 29.2081C97.3913 29.2081 98.817 29.8003 99.8259 30.9847C100.835 32.1691 101.339 33.8141 101.339 35.9198V37.091ZM98.3915 34.9328C98.3827 33.8361 98.1239 32.9851 97.615 32.3797C97.1061 31.7655 96.4043 31.4585 95.5094 31.4585C94.632 31.4585 93.8863 31.7787 93.2721 32.4192C92.6668 33.0596 92.2939 33.8975 92.1535 34.9328H98.3915ZM125.187 24.1282L118.41 43H114.909L108.25 24.1282H111.672L116.33 38.4466C116.48 38.9028 116.594 39.4336 116.673 40.0389H116.725C116.787 39.5389 116.914 38.9993 117.107 38.4202L121.871 24.1282H125.187ZM128.077 26.6945C127.577 26.6945 127.147 26.5321 126.787 26.2075C126.436 25.8829 126.261 25.4705 126.261 24.9705C126.261 24.4704 126.436 24.0536 126.787 23.7202C127.147 23.3868 127.577 23.2201 128.077 23.2201C128.594 23.2201 129.033 23.3868 129.393 23.7202C129.753 24.0536 129.932 24.4704 129.932 24.9705C129.932 25.4442 129.753 25.8522 129.393 26.1944C129.033 26.5278 128.594 26.6945 128.077 26.6945ZM129.59 43H126.537V29.5239H129.59V43ZM144.192 37.091H135.006C135.042 38.3369 135.423 39.2976 136.151 39.9731C136.888 40.6487 137.897 40.9865 139.178 40.9865C140.617 40.9865 141.938 40.5566 143.139 39.6968V42.1577C141.911 42.9298 140.288 43.3158 138.27 43.3158C136.287 43.3158 134.73 42.7061 133.598 41.4866C132.475 40.2583 131.914 38.5343 131.914 36.3146C131.914 34.2177 132.532 32.5113 133.769 31.1953C135.015 29.8705 136.559 29.2081 138.402 29.2081C140.244 29.2081 141.67 29.8003 142.679 30.9847C143.688 32.1691 144.192 33.8141 144.192 35.9198V37.091ZM141.244 34.9328C141.236 33.8361 140.977 32.9851 140.468 32.3797C139.959 31.7655 139.257 31.4585 138.362 31.4585C137.485 31.4585 136.739 31.7787 136.125 32.4192C135.52 33.0596 135.147 33.8975 135.006 34.9328H141.244ZM164.414 29.5239L160.439 43H157.241L154.794 33.8668C154.697 33.5158 154.636 33.121 154.609 32.6824H154.557C154.539 32.9807 154.46 33.3667 154.32 33.8405L151.662 43H148.529L144.568 29.5239H147.727L150.174 39.2362C150.253 39.5257 150.306 39.9117 150.332 40.3943H150.424C150.451 40.0258 150.521 39.631 150.635 39.2098L153.359 29.5239H156.228L158.65 39.2756C158.729 39.5827 158.786 39.9688 158.821 40.4338H158.913C158.93 40.1091 158.996 39.7231 159.11 39.2756L161.505 29.5239H164.414Z" fill="white"/>
<path d="M89.8363 57V51.9382H91.6983C91.9731 51.9382 92.2201 52.0057 92.4395 52.1407C92.6588 52.2757 92.8323 52.4577 92.9601 52.6867C93.0903 52.9132 93.1553 53.1663 93.1553 53.4459C93.1553 53.6821 93.1107 53.8979 93.0216 54.0931C92.9348 54.2883 92.8119 54.4547 92.6528 54.5921C92.4961 54.7294 92.3165 54.8283 92.1141 54.8885L93.3361 57H92.4648L91.2789 54.9572H90.5883V57H89.8363ZM90.5883 54.2052H91.6187C91.7634 54.2052 91.8947 54.169 92.0128 54.0967C92.1333 54.0244 92.2286 53.928 92.2985 53.8075C92.3684 53.687 92.4033 53.5508 92.4033 53.3989C92.4033 53.2471 92.3684 53.1109 92.2985 52.9904C92.2286 52.8674 92.1333 52.771 92.0128 52.7011C91.8947 52.6288 91.7634 52.5927 91.6187 52.5927H90.5883V54.2052ZM95.1791 57V51.9382H98.321V52.6903H95.9311V53.9123H97.8546V54.6644H95.9311V56.248H98.321V57H95.1791ZM101.808 51.9382H102.687L104.527 57H103.731L103.381 56.0383H101.114L100.767 57H99.9677L101.808 51.9382ZM101.392 55.2862H103.102L102.245 52.9361L101.392 55.2862ZM106.246 57V51.9382H106.998V56.248H109.178V57H106.246ZM113.881 57V51.9382H117.023V52.6903H114.633V53.9123H116.557V54.6644H114.633V56.248H117.023V57H113.881ZM120.71 57.094C120.433 57.094 120.167 57.0506 119.911 56.9638C119.656 56.8771 119.433 56.7529 119.242 56.5914C119.052 56.4275 118.916 56.2335 118.834 56.0093L119.539 55.7454C119.58 55.8611 119.658 55.9648 119.774 56.0563C119.892 56.1455 120.032 56.2154 120.193 56.266C120.357 56.3167 120.529 56.342 120.71 56.342C120.903 56.342 121.084 56.3106 121.253 56.248C121.424 56.1853 121.561 56.0985 121.665 55.9876C121.771 55.8768 121.824 55.7466 121.824 55.5972C121.824 55.4429 121.768 55.3164 121.657 55.2175C121.549 55.1187 121.409 55.0404 121.238 54.9825C121.069 54.9247 120.893 54.8813 120.71 54.8524C120.356 54.7945 120.038 54.7102 119.756 54.5993C119.476 54.4884 119.254 54.3329 119.09 54.1329C118.929 53.9328 118.848 53.6725 118.848 53.3519C118.848 53.0506 118.934 52.7879 119.105 52.5637C119.278 52.3396 119.506 52.166 119.788 52.0431C120.073 51.9178 120.38 51.8551 120.71 51.8551C120.983 51.8551 121.245 51.8985 121.498 51.9852C121.754 52.0696 121.978 52.1937 122.171 52.3576C122.366 52.5191 122.506 52.7156 122.59 52.947L121.878 53.2037C121.837 53.0856 121.759 52.9831 121.643 52.8964C121.527 52.8072 121.388 52.7373 121.224 52.6867C121.062 52.636 120.891 52.6107 120.71 52.6107C120.517 52.6083 120.337 52.6397 120.168 52.7047C120.002 52.7674 119.865 52.8542 119.759 52.9651C119.653 53.0759 119.6 53.2049 119.6 53.3519C119.6 53.5327 119.65 53.6701 119.748 53.7641C119.847 53.8581 119.98 53.928 120.146 53.9738C120.315 54.0172 120.503 54.057 120.71 54.0931C121.043 54.1461 121.35 54.2341 121.632 54.357C121.917 54.48 122.144 54.6439 122.315 54.8488C122.489 55.0512 122.576 55.3007 122.576 55.5972C122.576 55.8961 122.489 56.1588 122.315 56.3854C122.144 56.6095 121.917 56.7843 121.632 56.9096C121.35 57.0325 121.043 57.094 120.71 57.094ZM128.127 51.9382V52.6903H126.515V57H125.763V52.6903H124.154V51.9382H128.127ZM130.963 51.9382H131.841L133.681 57H132.886L132.535 56.0383H130.268L129.921 57H129.122L130.963 51.9382ZM130.547 55.2862H132.257L131.4 52.9361L130.547 55.2862ZM138.65 51.9382V52.6903H137.038V57H136.286V52.6903H134.677V51.9382H138.65ZM140.461 57V51.9382H143.603V52.6903H141.213V53.9123H143.136V54.6644H141.213V56.248H143.603V57H140.461ZM148.308 57V51.9382H149.06V56.248H151.24V57H148.308ZM153.121 57V51.9382H153.873V56.248H156.053V57H153.121ZM159.881 57.094C159.539 57.094 159.217 57.0265 158.916 56.8915C158.615 56.7541 158.35 56.5661 158.121 56.3275C157.894 56.0865 157.716 55.8069 157.586 55.4887C157.458 55.1705 157.394 54.8307 157.394 54.4691C157.394 54.1076 157.458 53.7677 157.586 53.4495C157.716 53.1314 157.894 52.853 158.121 52.6144C158.35 52.3733 158.615 52.1853 158.916 52.0503C159.217 51.9129 159.539 51.8442 159.881 51.8442C160.291 51.8442 160.668 51.9395 161.013 52.1299C161.358 52.3203 161.643 52.5734 161.87 52.8891L161.201 53.2471C161.044 53.0494 160.85 52.8915 160.619 52.7734C160.388 52.6553 160.142 52.5963 159.881 52.5963C159.64 52.5963 159.415 52.6457 159.205 52.7445C158.996 52.8433 158.811 52.9783 158.652 53.1495C158.493 53.3206 158.369 53.5194 158.28 53.746C158.191 53.9726 158.146 54.2136 158.146 54.4691C158.146 54.727 158.191 54.9693 158.28 55.1958C158.369 55.42 158.493 55.6189 158.652 55.7924C158.814 55.9635 158.999 56.0985 159.209 56.1974C159.419 56.2938 159.643 56.342 159.881 56.342C160.147 56.342 160.394 56.2829 160.623 56.1648C160.854 56.0443 161.047 55.8852 161.201 55.6876L161.87 56.0527C161.643 56.3685 161.358 56.6216 161.013 56.812C160.668 57 160.291 57.094 159.881 57.094Z" fill="white"/>
</svg>
