<svg width="55" height="54" viewBox="0 0 55 54" fill="none" xmlns="http://www.w3.org/2000/svg">
<g clip-path="url(#clip0_61_411)">
<mask id="path-1-inside-1_61_411" fill="white">
<path fill-rule="evenodd" clip-rule="evenodd" d="M45.0082 -0.00390625C41.293 -0.00390625 38.1513 2.55301 37.2435 5.98581L36.244 5.52141C36.0657 5.43851 35.8714 5.39556 35.6748 5.39556C35.4782 5.39556 35.284 5.43851 35.1057 5.52141L18.5746 13.2008L2.04362 5.52195C1.83792 5.42642 1.61148 5.38425 1.38518 5.39934C1.15889 5.41443 0.940043 5.48629 0.748851 5.60828C0.557658 5.73027 0.40028 5.89847 0.291247 6.09734C0.182213 6.2962 0.125038 6.51934 0.125 6.74613V44.7013C0.12494 44.9587 0.198464 45.2108 0.336905 45.4278C0.475346 45.6448 0.672934 45.8177 0.90638 45.9261L18.006 53.869C18.1843 53.9519 18.3786 53.9948 18.5752 53.9948C18.7718 53.9948 18.966 53.9519 19.1443 53.869L35.6754 46.1901L52.2064 53.869C53.1012 54.2842 54.125 53.6314 54.125 52.6453V14.6901C54.1251 14.4327 54.0515 14.1807 53.9131 13.9637C53.7747 13.7467 53.5771 13.5738 53.3436 13.4654L51.5994 12.6543L52.1454 11.7244C52.2696 11.4992 52.3684 11.2595 52.4532 11.0143C52.8434 10.061 53.0445 9.04091 53.045 8.01082C53.045 3.60602 49.4259 -0.00390625 45.0082 -0.00390625ZM45.0082 3.75074C47.3869 3.75074 49.2785 5.63859 49.2785 8.01082C49.2785 10.3825 47.3869 12.2687 45.0082 12.2687C42.6295 12.2687 40.7379 10.3825 40.7379 8.01082C40.7379 5.63859 42.6295 3.75074 45.0082 3.75074ZM36.2785 8.51465L37.0221 8.86079C37.1666 10.2103 37.6546 11.5002 38.4396 12.6073L44.0275 22.268C44.8105 23.2908 45.3311 23.0964 45.9818 22.214L50.2246 14.9925L51.425 15.5509V50.5296L36.4789 43.5868L36.3568 22.1616C36.5772 22.2091 36.7969 22.255 37.0178 22.3074L37.5146 20.2063C37.1259 20.1144 36.7356 20.0292 36.3439 19.9508L36.2785 8.51465ZM34.6596 8.70581L34.7217 19.6873C34.164 19.611 33.6031 19.5604 33.0407 19.5356L32.9608 21.6934C33.5483 21.715 34.1407 21.7787 34.7347 21.8651L34.8589 43.5916L19.3738 50.7861L19.1746 15.8997L34.6596 8.70581ZM2.825 8.86187L17.5535 15.7037L17.7538 50.7753L2.825 43.8395V8.86187ZM30.6582 19.683C29.9146 19.8164 29.1538 20.0545 28.4453 20.4665C27.5978 20.9572 26.9008 21.6706 26.43 22.5294L28.3211 23.5726C28.6028 23.0596 29.0182 22.6325 29.5231 22.3366L29.5264 22.3344L29.5296 22.3323C29.9654 22.0784 30.4843 21.9078 31.04 21.8084L30.6582 19.683ZM39.6579 20.7797L39.046 22.8501C40.3977 23.2497 41.7363 23.7087 43.0674 24.2055L43.8229 22.1816C42.4556 21.6718 41.0689 21.1966 39.6579 20.7797ZM25.6168 24.8816L25.6006 24.9669L25.599 24.9745C25.3295 26.5032 25.3581 28.0077 25.4186 29.4376L27.5764 29.3458C27.5176 27.9585 27.5052 26.6161 27.726 25.3563L27.739 25.2888L25.6168 24.8816ZM27.705 31.475L25.5504 31.6208C25.6476 33.0621 25.7512 34.4748 25.7475 35.8599L27.9075 35.8653C27.9118 34.3695 27.8022 32.9071 27.705 31.475ZM25.64 37.8957C25.5806 38.4103 25.492 38.9109 25.3624 39.3915L25.3614 39.3942L25.3603 39.3985C25.1713 40.1194 24.8532 40.7869 24.4093 41.3096L26.0547 42.7082C26.7502 41.8901 27.1914 40.9273 27.4479 39.9531L27.449 39.9499C27.611 39.3472 27.7163 38.7402 27.7854 38.1408L25.64 37.8957ZM7.40528 40.0006L6.43544 41.9306C7.77464 42.604 9.15974 43.1607 10.5546 43.6424L11.2593 41.6006C9.93356 41.1433 8.63918 40.6205 7.40528 40.0006ZM13.2567 42.2217L12.6822 44.3039C14.111 44.6986 15.5798 45.0124 17.081 45.1814L17.3218 43.0349C15.9605 42.8821 14.6029 42.5937 13.2567 42.2217ZM23.0529 42.3739C21.9772 42.9247 20.6785 43.1283 19.3431 43.1445L19.3701 45.3045C20.9004 45.2862 22.5366 45.0648 24.0367 44.2963L23.0529 42.3739Z"/>
</mask>
<path fill-rule="evenodd" clip-rule="evenodd" d="M45.0082 -0.00390625C41.293 -0.00390625 38.1513 2.55301 37.2435 5.98581L36.244 5.52141C36.0657 5.43851 35.8714 5.39556 35.6748 5.39556C35.4782 5.39556 35.284 5.43851 35.1057 5.52141L18.5746 13.2008L2.04362 5.52195C1.83792 5.42642 1.61148 5.38425 1.38518 5.39934C1.15889 5.41443 0.940043 5.48629 0.748851 5.60828C0.557658 5.73027 0.40028 5.89847 0.291247 6.09734C0.182213 6.2962 0.125038 6.51934 0.125 6.74613V44.7013C0.12494 44.9587 0.198464 45.2108 0.336905 45.4278C0.475346 45.6448 0.672934 45.8177 0.90638 45.9261L18.006 53.869C18.1843 53.9519 18.3786 53.9948 18.5752 53.9948C18.7718 53.9948 18.966 53.9519 19.1443 53.869L35.6754 46.1901L52.2064 53.869C53.1012 54.2842 54.125 53.6314 54.125 52.6453V14.6901C54.1251 14.4327 54.0515 14.1807 53.9131 13.9637C53.7747 13.7467 53.5771 13.5738 53.3436 13.4654L51.5994 12.6543L52.1454 11.7244C52.2696 11.4992 52.3684 11.2595 52.4532 11.0143C52.8434 10.061 53.0445 9.04091 53.045 8.01082C53.045 3.60602 49.4259 -0.00390625 45.0082 -0.00390625ZM45.0082 3.75074C47.3869 3.75074 49.2785 5.63859 49.2785 8.01082C49.2785 10.3825 47.3869 12.2687 45.0082 12.2687C42.6295 12.2687 40.7379 10.3825 40.7379 8.01082C40.7379 5.63859 42.6295 3.75074 45.0082 3.75074ZM36.2785 8.51465L37.0221 8.86079C37.1666 10.2103 37.6546 11.5002 38.4396 12.6073L44.0275 22.268C44.8105 23.2908 45.3311 23.0964 45.9818 22.214L50.2246 14.9925L51.425 15.5509V50.5296L36.4789 43.5868L36.3568 22.1616C36.5772 22.2091 36.7969 22.255 37.0178 22.3074L37.5146 20.2063C37.1259 20.1144 36.7356 20.0292 36.3439 19.9508L36.2785 8.51465ZM34.6596 8.70581L34.7217 19.6873C34.164 19.611 33.6031 19.5604 33.0407 19.5356L32.9608 21.6934C33.5483 21.715 34.1407 21.7787 34.7347 21.8651L34.8589 43.5916L19.3738 50.7861L19.1746 15.8997L34.6596 8.70581ZM2.825 8.86187L17.5535 15.7037L17.7538 50.7753L2.825 43.8395V8.86187ZM30.6582 19.683C29.9146 19.8164 29.1538 20.0545 28.4453 20.4665C27.5978 20.9572 26.9008 21.6706 26.43 22.5294L28.3211 23.5726C28.6028 23.0596 29.0182 22.6325 29.5231 22.3366L29.5264 22.3344L29.5296 22.3323C29.9654 22.0784 30.4843 21.9078 31.04 21.8084L30.6582 19.683ZM39.6579 20.7797L39.046 22.8501C40.3977 23.2497 41.7363 23.7087 43.0674 24.2055L43.8229 22.1816C42.4556 21.6718 41.0689 21.1966 39.6579 20.7797ZM25.6168 24.8816L25.6006 24.9669L25.599 24.9745C25.3295 26.5032 25.3581 28.0077 25.4186 29.4376L27.5764 29.3458C27.5176 27.9585 27.5052 26.6161 27.726 25.3563L27.739 25.2888L25.6168 24.8816ZM27.705 31.475L25.5504 31.6208C25.6476 33.0621 25.7512 34.4748 25.7475 35.8599L27.9075 35.8653C27.9118 34.3695 27.8022 32.9071 27.705 31.475ZM25.64 37.8957C25.5806 38.4103 25.492 38.9109 25.3624 39.3915L25.3614 39.3942L25.3603 39.3985C25.1713 40.1194 24.8532 40.7869 24.4093 41.3096L26.0547 42.7082C26.7502 41.8901 27.1914 40.9273 27.4479 39.9531L27.449 39.9499C27.611 39.3472 27.7163 38.7402 27.7854 38.1408L25.64 37.8957ZM7.40528 40.0006L6.43544 41.9306C7.77464 42.604 9.15974 43.1607 10.5546 43.6424L11.2593 41.6006C9.93356 41.1433 8.63918 40.6205 7.40528 40.0006ZM13.2567 42.2217L12.6822 44.3039C14.111 44.6986 15.5798 45.0124 17.081 45.1814L17.3218 43.0349C15.9605 42.8821 14.6029 42.5937 13.2567 42.2217ZM23.0529 42.3739C21.9772 42.9247 20.6785 43.1283 19.3431 43.1445L19.3701 45.3045C20.9004 45.2862 22.5366 45.0648 24.0367 44.2963L23.0529 42.3739Z" fill="#E98A10" stroke="#E98A10" stroke-width="6" mask="url(#path-1-inside-1_61_411)"/>
</g>
<defs>
<clipPath id="clip0_61_411">
<rect width="54" height="54" fill="white" transform="translate(0.125 -0.00390625)"/>
</clipPath>
</defs>
</svg>
