<svg width="13" height="15" viewBox="0 0 13 15" fill="none" xmlns="http://www.w3.org/2000/svg">
<path d="M10.0204 2.69919C9.49739 2.09216 9.2091 1.31273 9.20918 0.505859H6.84439V10.1503C6.82653 10.6723 6.60984 11.1669 6.24003 11.5297C5.87022 11.8925 5.37622 12.0951 4.86224 12.0947C3.77551 12.0947 2.87245 11.1925 2.87245 10.0725C2.87245 8.73475 4.14286 7.73141 5.45153 8.14364V5.68586C2.81122 5.32808 0.5 7.41253 0.5 10.0725C0.5 12.6625 2.61225 14.5059 4.85459 14.5059C7.25765 14.5059 9.20918 12.5225 9.20918 10.0725V5.1803C10.1681 5.88019 11.3194 6.2557 12.5 6.25364V3.8503C12.5 3.8503 11.0612 3.9203 10.0204 2.69919Z" fill="white"/>
</svg>
