<svg width="58" height="62" viewBox="0 0 58 62" fill="none" xmlns="http://www.w3.org/2000/svg">
<path d="M28.8758 60.072C31.1346 59.9796 43.8954 53.884 48.5635 47.0369C53.2315 40.1897 55.7043 21.964 55.875 9.93981C42.3813 9.9413 33.6493 6.1718 28.8758 1.91919C24.0991 6.17628 15.3871 9.9413 1.875 9.9413C1.875 21.967 4.68584 40.0868 9.18821 47.0369C13.6906 53.9869 26.6171 60.163 28.8758 60.072Z" stroke="#E98A10" stroke-width="3" stroke-linecap="round" stroke-linejoin="round"/>
<path d="M33.9969 18.5343C33.284 18.5394 32.5763 18.5741 31.8287 18.7745C31.0141 18.995 30.2412 19.3478 29.541 19.8188C28.5571 19.2408 27.604 18.7655 26.6907 18.6537C25.5565 18.5137 24.5032 18.5895 23.2791 18.6152C21.8276 18.6448 20.8809 19.3859 19.3446 19.9793C17.8097 20.5702 15.8328 21.1431 13.0429 21.1431H11.7584V33.5064L12.4816 33.8674L14.8489 35.0324L23.2791 44.4247L23.3189 44.4645C24.2822 45.4176 25.5822 45.6539 26.7305 45.5884C27.8801 45.5242 28.9591 45.1876 29.821 44.6661C31.7182 43.5217 36.8858 39.9289 36.8858 39.9289L37.0065 39.848L37.0874 39.7683C37.6988 39.1608 38.0058 38.4196 38.2114 37.6412L43.1477 35.1519L46.8406 33.9085L47.7244 33.6259V21.1431H46.4399C44.2805 21.1592 42.1392 20.7498 40.1381 19.9382C38.6018 19.3384 37.6693 18.6049 36.2024 18.5741C35.4189 18.5587 34.7085 18.5291 33.9969 18.5343ZM34.0355 21.1033C34.6135 21.0981 35.2814 21.129 36.124 21.1431C36.2589 21.1482 37.4933 21.6749 39.2146 22.348C40.6699 22.9196 42.6917 23.4269 45.1554 23.5914V31.78L42.1843 32.7845H42.1047L42.0238 32.8231L38.1317 34.7909C37.9251 34.1948 37.5971 33.6481 37.1683 33.1853L37.0874 33.0645L31.6283 26.362L30.8255 25.3575L29.821 26.1604L26.3696 28.9708C25.2109 29.7737 24.272 29.5424 23.3189 29.0916C23.0427 28.9606 23.0581 28.9207 22.8372 28.7705L28.6984 23.9125L28.778 23.8328C30.5185 22.1065 31.5885 21.5092 32.5107 21.2638C32.9732 21.138 33.4587 21.1084 34.0355 21.1033ZM25.0863 21.1431C25.5149 21.1257 25.9442 21.139 26.3708 21.1829C26.7074 21.2227 27.0889 21.5092 27.4151 21.6248C27.2841 21.7455 27.1891 21.8149 27.0529 21.9459L26.9733 22.0268L19.9483 27.8456L18.8642 28.7294L19.8276 29.7326C19.8276 29.7326 20.7563 30.737 22.1962 31.4191C23.6361 32.1012 25.8596 32.4878 27.8557 31.098L27.9366 31.0171L30.4247 28.9708L35.162 34.7909L35.2018 34.8718L35.2416 34.9104C36.0894 35.7491 36.0701 37.0683 35.2416 37.9225C35.2313 37.9315 35.2519 37.9521 35.2416 37.9611C35.2313 37.9675 35.0618 38.0677 35.0412 38.0831L33.3547 35.7941L31.2674 37.3201L32.9141 39.5269C32.2461 39.979 31.9456 40.2154 31.2275 40.6919L29.5025 38.3631L27.4139 39.8891L29.0606 42.0959C28.9142 42.1858 28.6136 42.3874 28.498 42.4581C28.0921 42.7034 27.3085 42.9796 26.611 43.0194C25.9547 43.0554 25.4524 42.9038 25.2071 42.6983L25.1673 42.6585L16.5765 33.1455L16.416 32.9438L14.3274 31.9008V23.5914C16.7808 23.4308 18.818 22.944 20.2682 22.3878C21.9843 21.7301 23.2097 21.1881 23.3587 21.1829L25.0863 21.1431Z" fill="#E98A10"/>
</svg>
