<svg width="15" height="15" viewBox="0 0 15 15" fill="none" xmlns="http://www.w3.org/2000/svg">
<path d="M7.52814 0.505897C3.68693 0.505897 0.556282 3.62089 0.556282 7.44288C0.556282 8.66788 0.8799 9.85787 1.48492 10.9079L0.5 14.5059L4.19347 13.5399C5.21357 14.0929 6.3603 14.3869 7.52814 14.3869C11.3693 14.3869 14.5 11.2719 14.5 7.44988C14.5 5.59488 13.7754 3.85189 12.4598 2.54289C11.8147 1.89477 11.0464 1.38087 10.1998 1.03115C9.35306 0.681428 8.44488 0.502875 7.52814 0.505897ZM7.53518 1.67489C9.08291 1.67489 10.5322 2.27689 11.6296 3.36889C12.1681 3.90475 12.595 4.54104 12.886 5.24133C13.1769 5.94161 13.3261 6.69212 13.3251 7.44988C13.3251 10.6279 10.7221 13.2109 7.52814 13.2109C6.48693 13.2109 5.46683 12.9379 4.5804 12.4059L4.36935 12.2869L2.17437 12.8609L2.75829 10.7329L2.61759 10.5089C2.03687 9.59075 1.72952 8.52769 1.73116 7.44288C1.73819 4.26489 4.33417 1.67489 7.53518 1.67489ZM5.05879 4.23689C4.94623 4.23689 4.75628 4.27889 4.59447 4.45389C4.4397 4.62889 3.98241 5.05588 3.98241 5.90288C3.98241 6.75688 4.60854 7.57588 4.68593 7.69488C4.78442 7.81388 5.92412 9.56387 7.67588 10.3059C8.09095 10.4949 8.41457 10.5999 8.66784 10.6769C9.08291 10.8099 9.46281 10.7889 9.76533 10.7469C10.103 10.6979 10.7925 10.3269 10.9402 9.92087C11.0879 9.51487 11.0879 9.17188 11.0457 9.09488C10.9965 9.02487 10.8839 8.98287 10.708 8.90588C10.5322 8.80788 9.67387 8.38788 9.51909 8.33188C9.35729 8.27588 9.25879 8.24788 9.12512 8.41588C9.01256 8.59088 8.67487 8.98287 8.57638 9.09488C8.47085 9.21387 8.37236 9.22787 8.20352 9.14387C8.0206 9.05287 7.45779 8.87088 6.79648 8.28288C6.27588 7.82088 5.93116 7.25388 5.82563 7.07888C5.74121 6.91088 5.81859 6.80588 5.90301 6.72888C5.9804 6.65188 6.09296 6.52588 6.16332 6.42088C6.25477 6.32288 6.28291 6.24588 6.3392 6.13388C6.39548 6.01488 6.36734 5.91688 6.32513 5.83288C6.28291 5.75588 5.93116 4.88789 5.78342 4.54489C5.64271 4.20889 5.50201 4.25089 5.38945 4.24389C5.29095 4.24389 5.17839 4.23689 5.05879 4.23689Z" fill="white"/>
</svg>
