<svg width="15" height="11" viewBox="0 0 15 11" fill="none" xmlns="http://www.w3.org/2000/svg">
<path fill-rule="evenodd" clip-rule="evenodd" d="M7.5 0.505859C6.72447 0.505859 5.82 0.523693 4.93833 0.547895L4.90251 0.549169C4.00521 0.574008 3.28112 0.593752 2.7107 0.686103C2.11619 0.782275 1.6226 0.966339 1.228 1.36313C0.832093 1.76119 0.659535 2.25352 0.57814 2.84265C0.5 3.4095 0.5 4.12792 0.5 5.02086V5.9915C0.5 6.88316 0.5 7.60159 0.57814 8.16906C0.658884 8.7582 0.832093 9.25052 1.228 9.64859C1.6226 10.046 2.11619 10.2294 2.7107 10.3256C3.28112 10.418 4.00521 10.4377 4.90251 10.4626L4.93833 10.4638C5.82065 10.488 6.72447 10.5059 7.5 10.5059C8.27554 10.5059 9.18 10.488 10.0617 10.4638L10.0975 10.4626C10.9948 10.4377 11.7189 10.418 12.2893 10.3256C12.8838 10.2294 13.3774 10.0454 13.772 9.64859C14.1679 9.25052 14.3411 8.7582 14.4219 8.16906C14.5 7.60222 14.5 6.8838 14.5 5.99086V5.02022C14.5 4.12792 14.5 3.4095 14.4219 2.84265C14.3411 2.25352 14.1679 1.76119 13.772 1.36313C13.3774 0.965703 12.8838 0.782275 12.2893 0.686103C11.7189 0.593752 10.9948 0.574008 10.0968 0.549169L10.0617 0.547895C9.20802 0.522552 8.35405 0.508539 7.5 0.505859ZM6.76549 7.19397C6.69123 7.23546 6.60713 7.25715 6.52161 7.25687C6.43608 7.25658 6.35214 7.23434 6.27816 7.19236C6.20419 7.15038 6.14279 7.09013 6.10009 7.01765C6.0574 6.94517 6.03491 6.863 6.03488 6.77935V4.23174C6.03491 4.14809 6.0574 4.06591 6.10009 3.99343C6.14279 3.92095 6.20419 3.8607 6.27816 3.81872C6.35214 3.77674 6.43608 3.7545 6.52161 3.75422C6.60713 3.75393 6.69123 3.77562 6.76549 3.81711L9.04456 5.09092C9.11925 5.13271 9.18133 5.19307 9.22451 5.26588C9.26768 5.33869 9.29042 5.42137 9.29042 5.50554C9.29042 5.58971 9.26768 5.67239 9.22451 5.7452C9.18133 5.81801 9.11925 5.87837 9.04456 5.92016L6.76549 7.19397Z" fill="white"/>
</svg>
